<svg xmlns="http://www.w3.org/2000/svg" viewBox="0 0 1024 512" role="img" aria-hidden="true">
  <defs>
    <linearGradient id="oceanLight" x1="0%" x2="100%" y1="0%" y2="100%">
      <stop offset="0%" stop-color="#ecfeff"/>
      <stop offset="50%" stop-color="#d1fae5"/>
      <stop offset="100%" stop-color="#bfdbfe"/>
    </linearGradient>
  </defs>
  <rect width="1024" height="512" fill="url(#oceanLight)"/>
  <g fill="#0f766e" opacity="0.85">
    <path d="M72 224c18-54 112-86 196-66 72 18 128 88 84 130-52 50-238 40-280-32z"/>
    <path d="M358 192c12-32 68-64 126-64 70 0 118 46 114 94-4 44-84 98-138 98-66 0-120-70-102-128z"/>
    <path d="M574 182c40-58 148-78 208-50 40 20 60 46 46 80-16 40-74 42-120 62-42 18-94 60-138 24-48-38-38-92 4-116z"/>
    <path d="M806 186c32-34 112-52 156-32 40 18 50 72 14 112-42 46-154 70-198 28-34-34-12-84 28-108z"/>
    <path d="M220 328c34-18 92-4 120 28 26 30 20 74-10 96-48 36-148 12-166-46-12-40 14-70 56-78z"/>
    <path d="M484 324c40-24 96-20 120 8 24 28 14 66-14 88-46 34-126 36-150-2-24-38 4-78 44-94z"/>
    <path d="M746 328c44-18 102-10 122 24 18 32-4 66-40 84-46 24-130 20-154-16-22-32 16-74 72-92z"/>
    <path d="M910 318c24-14 74-12 90 6 22 24 10 66-28 86-34 18-96 18-114-16-16-30 16-60 52-76z"/>
  </g>
</svg>
