<?xml version="1.0" encoding="UTF-8" standalone="no"?>
<!DOCTYPE svg PUBLIC "-//W3C//DTD SVG 1.1//EN" "http://www.w3.org/Graphics/SVG/1.1/DTD/svg11.dtd">
<svg width="100%" height="100%" viewBox="0 0 11112 11112" version="1.1" xmlns="http://www.w3.org/2000/svg" xmlns:xlink="http://www.w3.org/1999/xlink" xml:space="preserve" xmlns:serif="http://www.serif.com/" style="fill-rule:evenodd;clip-rule:evenodd;stroke-linejoin:round;stroke-miterlimit:2;">
    <g transform="matrix(5.555556,0,0,5.555556,0,0)">
        <g id="_73338d62-5a20-4abc-a549-49f54c876467.jpg" serif:id="73338d62-5a20-4abc-a549-49f54c876467.jpg" transform="matrix(1.953125,0,0,1.953125,-2.096137,-2.096137)">
            <path d="M97.967,305.502C100.437,267.731 102.594,268.164 115.202,232.398C131.279,186.794 179.076,250.801 189.727,257.008C197.863,261.749 193.325,208.459 225.983,137.733C246.873,92.493 269.802,114.152 317.758,146.1C324.222,150.407 330.507,158.294 336.658,143.571C372.611,57.524 377.491,31.864 410.356,45.824C458.378,66.22 504.258,125.162 504.548,125.452C511.622,132.538 513.216,126.721 549.202,99.101C610.357,52.164 618.896,51.074 634.031,69.877C677.958,124.45 689.914,218.965 694.383,230.556C698.537,241.331 735.697,171.44 767.466,172.896C795.833,174.197 854.9,330.594 768.12,442.208C754.881,459.236 753.236,458.956 747.158,492.433C733.967,565.087 732.445,566.262 739.944,578.216C808.29,687.174 806.75,687.859 812.993,697.113C816.973,703.014 817.285,696.537 826.922,682.805C868.904,622.991 936.329,650.711 947.808,702.434C949.387,709.552 950.454,833.863 893.158,877.031C848.83,910.428 689.173,840.306 661.35,855.217C652.132,860.157 603.317,886.318 534.526,886.922C523.283,887.02 536.581,1003.107 439.399,975.853C396.555,963.838 329.953,876.306 305.618,863.288C302.332,861.53 264.697,841.398 264.531,841.344C255.221,838.316 226.553,921.846 216.11,936.225C176.757,990.415 69.996,990.7 63.99,911.47C58.764,842.531 140.788,840.93 141.565,840.629C149.332,837.619 213.666,688.192 215.663,681.545C218.515,672.051 182.602,469.062 181.692,466.4C179.833,460.956 99.52,425.701 97.967,305.502ZM718.948,645.538C717.562,669.698 722.599,668.91 751.646,719.415C766.094,744.536 768.198,755.244 795.535,754.886C803.038,754.787 799.735,748.88 754.041,670.765C728.246,626.668 724.403,624.784 722.893,628.69C721.219,633.021 719.195,644.176 718.948,645.538ZM494.965,860.503C495.453,803.326 497.303,790.186 492.056,782.784C466.128,746.207 426.697,781.297 426.118,801.475C424.211,867.903 434.419,885.963 422.761,877.158C343.449,817.252 333.223,800.484 338.4,785.463C348.601,755.864 389.933,802.242 391.827,792.574C395.179,775.457 428.236,724.754 474.583,736.182C541.219,752.613 521.876,830.399 530.74,849.366C535.24,858.996 627.456,840.404 649.238,822.202C654.899,817.472 657.64,815.182 670.846,732.556C710.041,487.33 715.883,487.445 712.899,479.302C711.526,475.556 601.198,525.358 354.477,498.963C239.469,486.658 221.356,464.339 219.205,471.406C217.347,477.511 242.475,619.259 242.874,620.339C244.027,623.466 247.29,615.058 247.505,614.502C264.057,571.848 292.01,592.056 289.883,612.568C288.807,622.946 181.157,855.959 176.092,865.272C159.464,895.838 139.637,876.557 120.447,883.366C105.456,888.685 86.679,929.764 122.446,937.715C191.051,952.967 209.91,864.742 234.809,813.65C312.228,654.784 318.257,655.464 325.501,656.48C359.148,661.197 333.368,697.471 293.88,775.692C281.264,800.681 272.778,808.494 297.733,821.039C381.341,863.07 407.823,926.671 450.629,944.203C498.33,963.741 494.738,882.693 494.965,860.503ZM359.965,392.515C365.972,306.691 398.104,306.202 377.291,265.607C349.995,212.368 308.464,185.98 300.765,181.089C273.193,163.571 263.143,151.068 256,167.726C195.002,309.975 256.879,415.434 310.842,454.042C322.392,462.305 371.642,469.579 369.799,460.464C363.771,430.645 359.414,431.24 359.965,392.515ZM716.588,744.05C724.812,744.36 720.685,738.398 714.045,725.738C713.611,724.911 707.506,713.269 702.385,726.455C698.036,737.656 714.878,743.46 716.588,744.05ZM136.959,309.486C138.493,320.135 137.827,320.01 139.801,330.426C156.633,419.246 190.641,424.671 231.574,437.287C232.042,437.432 238.481,439.416 237.694,437.486C230.919,420.883 226.225,423.106 201.719,359.415C198.723,351.63 172.53,283.556 145.451,271.631C142.61,270.381 137.33,270.831 136.959,309.486ZM504.49,472.038C509.372,471.938 558.154,470.938 565.247,466.107C604.313,439.499 619.555,416.534 623.082,411.219C698.763,297.187 627.593,126.988 611.28,108.707C597.169,92.895 335.182,310.637 412.712,459.384C416.033,465.756 416.213,473.801 504.49,472.038ZM642.495,460.044C647.751,459.289 664.05,457.971 684.528,451.585C796.569,416.651 772.637,268.176 765.866,243.395C761.857,228.72 758.839,222.369 752.677,228.676C684.448,298.51 702.752,328.337 675.564,397.527C654.508,451.114 620.62,459.159 642.495,460.044ZM461.267,180.29C473.216,166.471 473.911,165.118 474.694,163.593C483.505,146.429 413.365,87.688 405.43,89.032C399.684,90.005 367.738,171.805 368.176,174.559C368.909,179.154 397.782,220.856 408.927,236.194C415.839,245.705 416.974,234.927 461.267,180.29ZM692.957,805.505C693.7,824.559 705.453,813.845 826.555,847.308C856.553,855.597 882.929,873.041 905.703,796.568C923.449,736.981 918.52,675.083 875.396,685.133C839.864,693.414 842.244,793.591 827.644,798.912C814.245,803.796 699.896,775.163 696.41,783.448C694.456,788.09 693.729,799.877 692.957,805.505Z" style="fill:rgb(1,1,1);"/>
            <path d="M594.957,595.483C597.048,536.148 664.013,534.782 681.014,572.729C709.62,636.58 605.683,669.53 594.957,595.483Z"/>
            <path d="M540.961,601.522C529.195,678.207 426.804,637.403 454.989,577.74C470.913,544.031 540.264,537.758 540.961,601.522Z"/>
        </g>
    </g>
</svg>
